<svg version="1" xmlns="http://www.w3.org/2000/svg" xmlns:xlink="http://www.w3.org/1999/xlink" width="216" height="64"><defs><path id="a" d="M0 0h215.197v64H0z"/></defs><clipPath id="b"><use xlink:href="#a" overflow="visible"/></clipPath><path clip-path="url(#b)" d="M0 0s.042 22.017 4.32 35.33C8.198 47.4 16.902 57.486 27.333 64c10.43-6.514 18.872-16.6 22.75-28.67C54.364 22.017 54.404 0 54.404 0H0z"/><path clip-path="url(#b)" fill="#FFD500" d="M27.333 62.935C16.773 56.19 8.713 46.06 5.177 35.055 1.477 23.538.977 5.162.91.9h52.584c-.066 4.263-.567 22.643-4.268 34.155-3.628 11.295-11.392 21.176-21.893 27.88"/><path clip-path="url(#b)" d="M29.29 61.968l.37-17.43c.204-3.06-.257-7.09 2.65-9.438.664-.255.664 1.124 1.328.51 1.887-1.682 3.877-3.415 5.763-4.998-.252-.407-.56-.92-.408-1.326 2.553-2.244 5.36-4.54 8.01-6.633.05-.102-.05-.204-.154-.15-1.53.56-3.313.97-4.638-.257-.205-.153-.155-.46-.41-.664-.612-.05-.92.765-1.427.92-1.275 1.02-2.807 1.48-4.186 2.346-1.324-.46-2.296-1.735-2.958-2.905-2.654-5.41-1.327-12.45 2.5-16.888 1.17-1.38 2.497-2.397 3.927-3.216.103-.153-.05-.257-.154-.307-11.884.612-22.65 9.03-27.65 19.643-1.427 3.16-2.347 6.528-2.6 10.05.457.102.815-.41 1.223-.665 3.418-2.09 6.377-5.866 11.02-5.048 1.938.562 3.724 1.48 5.408 2.703.254.306.715.714.56 1.122-1.937 2.04-3.01 4.795-3.213 7.6.153 6.07.41 11.838.614 18.06.205 2.195.22 4.853.32 7.096l2.27 1.216 1.835-1.342z"/><path clip-path="url(#b)" fill="#FFD500" d="M41.06 24.796c-.05.662-.715 1.072-.97 1.633-.51.712-.61 1.732-1.328 2.293-.15-1.376.512-2.65 1.48-3.62-.05-.205-.254 0-.408 0-.968.355-1.886.152-2.956.102l-.104-.103c.97-.562 2.245-.306 3.265-.766.356 0 1.07-.15 1.02.46M26.828 35.1l.1.153c.97-.662 2.094-1.172 3.368-1.07.56.103 1.02.306 1.53.51-1.02.56-2.294 0-3.316.51-.816 0-1.53 1.582-2.243.46-.307-.87 0-1.785.152-2.704.357-1.022.458-2.146 1.07-3.113 0 1.732-.51 3.518-.662 5.253M28.917 41.937c.153.255.05.56.104.816-1.328-1.837-3.164-3.214-3.98-5.357l-.05-.866c1.377 1.786 3.112 3.316 3.927 5.407M28.917 50.2c-1.123-1.02-2.242-2.09-3.212-3.264-.358-.612-.766-1.225-.715-1.94 1.326 1.582 3.773 2.91 3.927 5.204M28.764 58.312c-.508-.255-.866-1.02-1.48-1.428-.968-.868-2.04-1.89-1.937-3.265 1.275 1.428 3.367 2.652 3.417 4.692"/><path clip-path="url(#b)" d="M67.974 10.942v3.497h5.253V30.01h3.896V14.44h5.17V10.94zM146.27 22.968l-.54 1.453-5.34-13.348-.053-.13h-4.18v19.07h3.45v-10.98l-.013-1.012 4.765 11.992h2.62l4.428-11.053.373-.978-.024 1.052v10.978h3.547v-19.07h-4.152zM165.85 10.942l-6.788 19.07h4.1l1.245-4.005h7.157l1.22 4.005h4.302l-6.84-19.07h-4.395zm2.165 3.35l.37 1.37 2.157 7.02h-5.11l2.18-7.022.403-1.37zM194.338 16.746c0-3.905-2.19-5.804-6.698-5.804h-6.8v19.07h3.847v-7.34h2.85l3.683 7.34h4.513l-4.645-8.087c2.1-.625 3.25-2.452 3.25-5.18m-3.97.125c0 2.04-.707 2.73-2.805 2.73h-2.877V14.29h2.978c1.997 0 2.703.674 2.703 2.578"/><path clip-path="url(#b)" d="M208.773 20.008l6.11-9.066h-4.503l-5.026 7.612h-2.07v-7.612h-3.846v19.07h3.846V21.83h1.994l5.188 8.087.06.095h4.67zM98.415 26.54h-8.33v-4.762h7.265v-3.224h-7.265v-4.09h7.98v-3.522H86.24v19.07h12.175zM106.985 26.54V10.94h-3.846v19.07h12.174V26.54zM131.353 26.54h-8.33v-4.762h7.263v-3.224h-7.264v-4.09h7.98v-3.522h-11.825v19.07h12.176zM72.937 39.916v1.23H71.55v1.15h1.387v8.24h1.496v-8.24h2.412v-1.15h-2.412V39.93c0-1.04.536-1.937 1.844-1.937.363 0 .726.048 1.023.126l.096-1.023c-.347-.11-.898-.188-1.386-.188-2.16 0-3.073 1.43-3.073 3.006"/><path clip-path="url(#b)" d="M84.06 47.937l-.347 1.213h-.047l-.44-1.182-2.68-6.82h-1.732l4.112 9.39-.048.156c-.41.914-.914 1.197-1.638 1.197-.348 0-.694-.077-1.057-.25l-.142 1.118c.41.188.93.3 1.45.3 1.37 0 2.285-.694 2.915-2.41l3.42-9.5h-1.608l-2.157 6.79zM107.778 40.99c-2.584 0-3.876 1.653-3.876 4.6 0 3.513 1.276 5.136 4.363 5.136 1.134 0 2.11-.268 2.9-.693l-.175-1.26c-.803.393-1.606.598-2.552.598-2.017 0-2.93-.85-3.01-3.322h6.02c.015-.205.03-.49.03-.727 0-3.008-1.463-4.33-3.7-4.33m-2.38 4.03c.095-1.857.804-2.74 2.395-2.74 1.355 0 2.285.757 2.316 2.74h-4.712zM115.114 43.54c0-.77.71-1.26 1.827-1.26.756 0 1.654.174 2.443.505l.126-1.26c-.757-.348-1.624-.536-2.537-.536-2.16 0-3.278 1.038-3.278 2.63 0 3.167 4.806 2.174 4.806 4.3 0 .884-.565 1.545-1.937 1.545-.898 0-1.97-.283-2.678-.82l-.19 1.293c.727.52 1.767.788 2.885.788 2.316 0 3.308-1.183 3.308-2.946 0-3.278-4.774-2.238-4.774-4.24M135.327 40.99c-2.82 0-4.097 1.4-4.097 4.883s1.26 4.868 4.097 4.868c2.82 0 4.032-1.386 4.032-4.867s-1.197-4.884-4.033-4.884m0 8.49c-1.844 0-2.552-.914-2.552-3.607 0-2.694.708-3.608 2.552-3.608 1.812 0 2.505.914 2.505 3.608 0 2.678-.692 3.607-2.505 3.607M151.04 40.99c-1.15 0-2.11.472-2.647 1.448h-.03c-.44-.96-1.276-1.434-2.537-1.434-.945 0-1.86.41-2.427 1.103h-.048l-.268-1.008-1.072.077v9.358h1.497v-7.12c.377-.63 1.182-1.057 1.97-1.057 1.04 0 1.843.504 1.843 1.78v6.396h1.48V44.14c0-1.182.85-1.765 1.86-1.765 1.212 0 1.952.6 1.952 1.922v6.24h1.48V44.28c.002-2.22-1.242-3.29-3.055-3.29M166.12 40.99c-1.15 0-2.11.472-2.645 1.448h-.032c-.44-.96-1.276-1.434-2.536-1.434-.946 0-1.86.41-2.426 1.103h-.048l-.268-1.008-1.07.077v9.358h1.495v-7.12c.377-.63 1.182-1.057 1.97-1.057 1.04 0 1.844.504 1.844 1.78v6.396h1.48V44.14c0-1.182.85-1.765 1.86-1.765 1.21 0 1.952.6 1.952 1.922v6.24h1.48V44.28c0-2.22-1.243-3.29-3.055-3.29"/><path clip-path="url(#b)" d="M177.867 47.417c0 1.276-.74 1.922-2.158 1.922-1.45 0-2.176-.663-2.176-1.923v-6.27h-1.48v6.302c0 2.06 1.182 3.26 3.64 3.26 2.473 0 3.654-1.182 3.654-3.26v-6.304h-1.48v6.27zM186.42 40.974c-1.057 0-2.08.41-2.727 1.118h-.048l-.252-.993-1.07.078v9.36h1.496v-7.123c.44-.678 1.386-1.056 2.19-1.056 1.385 0 2.125.582 2.125 1.97v6.207h1.48V44.33c.002-2.238-1.21-3.356-3.196-3.356"/><path clip-path="url(#b)" d="M199.713 45.32c0-3.008-1.466-4.33-3.702-4.33-2.583 0-3.876 1.653-3.876 4.6 0 3.513 1.277 5.136 4.364 5.136 1.136 0 2.112-.268 2.9-.693l-.175-1.26c-.803.393-1.605.598-2.552.598-2.016 0-2.93-.85-3.008-3.322h6.02c.014-.206.03-.49.03-.728m-6.08-.3c.094-1.857.804-2.74 2.395-2.74 1.354 0 2.284.757 2.315 2.74h-4.71zM129.805 41.146h-1.75l-2.772 3.703h-1.433v-7.762h-1.48v13.448h1.48V46.11h1.45l2.883 4.426h1.75l-3.34-5.104zM102.498 41.146h-1.748l-2.773 3.703h-1.433v-7.762h-1.482v13.448h1.482V46.11h1.45l2.882 4.426h1.748l-3.34-5.104zM90.33 37.09h1.496v13.447H90.33z"/></svg>